<?xml version="1.0" encoding="UTF-8"?>
<svg width="760" height="380" xmlns="http://www.w3.org/2000/svg" style="background:#ffffff">
  <rect width="100%" height="100%" fill="#ffffff"/>
  <text x="70" y="24" fill="#111827" font-size="14" font-weight="bold" font-family="sans-serif">Thermal Range Analytics: m1 (WHITE Theme)</text>
  
      <line x1="70" y1="40.0" x2="720" y2="40.0" stroke="#f3f4f6" stroke-dasharray="3 3"/>
      <text x="60" y="44.0" fill="#6b7280" font-size="10" text-anchor="end" font-family="sans-serif">38.0°C</text>
    
      <line x1="70" y1="107.5" x2="720" y2="107.5" stroke="#f3f4f6" stroke-dasharray="3 3"/>
      <text x="60" y="111.5" fill="#6b7280" font-size="10" text-anchor="end" font-family="sans-serif">36.3°C</text>
    
      <line x1="70" y1="175.0" x2="720" y2="175.0" stroke="#f3f4f6" stroke-dasharray="3 3"/>
      <text x="60" y="179.0" fill="#6b7280" font-size="10" text-anchor="end" font-family="sans-serif">34.5°C</text>
    
      <line x1="70" y1="242.5" x2="720" y2="242.5" stroke="#f3f4f6" stroke-dasharray="3 3"/>
      <text x="60" y="246.5" fill="#6b7280" font-size="10" text-anchor="end" font-family="sans-serif">32.8°C</text>
    
      <line x1="70" y1="310.0" x2="720" y2="310.0" stroke="#f3f4f6" stroke-dasharray="3 3"/>
      <text x="60" y="314.0" fill="#6b7280" font-size="10" text-anchor="end" font-family="sans-serif">31.0°C</text>
    
  
      <g transform="translate(70.0, 330.0)">
        <text fill="#6b7280" font-size="10" text-anchor="end" transform="rotate(-30)" font-family="sans-serif">S1 (0m) (FLIR0201)</text>
      </g>
    
      <g transform="translate(178.3, 330.0)">
        <text fill="#6b7280" font-size="10" text-anchor="end" transform="rotate(-30)" font-family="sans-serif">S2 (2m) (FLIR0202)</text>
      </g>
    
      <g transform="translate(286.7, 330.0)">
        <text fill="#6b7280" font-size="10" text-anchor="end" transform="rotate(-30)" font-family="sans-serif">S3 (4m) (FLIR0203)</text>
      </g>
    
      <g transform="translate(395.0, 330.0)">
        <text fill="#6b7280" font-size="10" text-anchor="end" transform="rotate(-30)" font-family="sans-serif">S4 (6m) (FLIR0204)</text>
      </g>
    
      <g transform="translate(503.3, 330.0)">
        <text fill="#6b7280" font-size="10" text-anchor="end" transform="rotate(-30)" font-family="sans-serif">S5 (8m) (FLIR0205)</text>
      </g>
    
      <g transform="translate(611.7, 330.0)">
        <text fill="#6b7280" font-size="10" text-anchor="end" transform="rotate(-30)" font-family="sans-serif">S6 (10m) (FLIR0206)</text>
      </g>
    
      <g transform="translate(720.0, 330.0)">
        <text fill="#6b7280" font-size="10" text-anchor="end" transform="rotate(-30)" font-family="sans-serif">S7 (12m) (FLIR0207)</text>
      </g>
    
  <polygon points="70.0,139.3 178.3,160.5 286.7,178.8 395.0,167.6 503.3,114.2 611.7,97.0 720.0,99.6 720.0,186.9 611.7,149.6 503.3,146.7 395.0,196.8 286.7,222.8 178.3,192.2 70.0,254.9" fill="rgba(245, 158, 11, 0.18)" stroke="rgba(245, 158, 11, 0.4)" stroke-width="1"/>
  <polyline points="70.0,153.4 178.3,180.1 286.7,201.1 395.0,184.9 503.3,136.4 611.7,124.1 720.0,126.5" fill="none" stroke="#d97706" stroke-width="2.5"/>
  
      <line x1="70.0" y1="254.9" x2="70.0" y2="139.3" stroke="#d97706" stroke-width="1.5"/>
      <circle cx="70.0" cy="254.9" r="3" fill="#fbbf24"/>
      <circle cx="70.0" cy="139.3" r="3" fill="#fbbf24"/>
      <circle cx="70.0" cy="153.4" r="5" fill="#b45309" stroke="#ffffff" stroke-width="1.5"/>
    
      <line x1="178.3" y1="192.2" x2="178.3" y2="160.5" stroke="#d97706" stroke-width="1.5"/>
      <circle cx="178.3" cy="192.2" r="3" fill="#fbbf24"/>
      <circle cx="178.3" cy="160.5" r="3" fill="#fbbf24"/>
      <circle cx="178.3" cy="180.1" r="5" fill="#b45309" stroke="#ffffff" stroke-width="1.5"/>
    
      <line x1="286.7" y1="222.8" x2="286.7" y2="178.8" stroke="#d97706" stroke-width="1.5"/>
      <circle cx="286.7" cy="222.8" r="3" fill="#fbbf24"/>
      <circle cx="286.7" cy="178.8" r="3" fill="#fbbf24"/>
      <circle cx="286.7" cy="201.1" r="5" fill="#b45309" stroke="#ffffff" stroke-width="1.5"/>
    
      <line x1="395.0" y1="196.8" x2="395.0" y2="167.6" stroke="#d97706" stroke-width="1.5"/>
      <circle cx="395.0" cy="196.8" r="3" fill="#fbbf24"/>
      <circle cx="395.0" cy="167.6" r="3" fill="#fbbf24"/>
      <circle cx="395.0" cy="184.9" r="5" fill="#b45309" stroke="#ffffff" stroke-width="1.5"/>
    
      <line x1="503.3" y1="146.7" x2="503.3" y2="114.2" stroke="#d97706" stroke-width="1.5"/>
      <circle cx="503.3" cy="146.7" r="3" fill="#fbbf24"/>
      <circle cx="503.3" cy="114.2" r="3" fill="#fbbf24"/>
      <circle cx="503.3" cy="136.4" r="5" fill="#b45309" stroke="#ffffff" stroke-width="1.5"/>
    
      <line x1="611.7" y1="149.6" x2="611.7" y2="97.0" stroke="#d97706" stroke-width="1.5"/>
      <circle cx="611.7" cy="149.6" r="3" fill="#fbbf24"/>
      <circle cx="611.7" cy="97.0" r="3" fill="#fbbf24"/>
      <circle cx="611.7" cy="124.1" r="5" fill="#b45309" stroke="#ffffff" stroke-width="1.5"/>
    
      <line x1="720.0" y1="186.9" x2="720.0" y2="99.6" stroke="#d97706" stroke-width="1.5"/>
      <circle cx="720.0" cy="186.9" r="3" fill="#fbbf24"/>
      <circle cx="720.0" cy="99.6" r="3" fill="#fbbf24"/>
      <circle cx="720.0" cy="126.5" r="5" fill="#b45309" stroke="#ffffff" stroke-width="1.5"/>
    
</svg>