<svg xmlns="http://www.w3.org/2000/svg" viewBox="0 0 700 580" width="700" height="580" style="background:#ffffff;font-family:Segoe UI,sans-serif;">
  <rect width="700" height="580" fill="#ffffff"/>
  <text x="24" y="32" fill="#111111" font-size="16" font-weight="bold">🌡 Signed Thermal Direction Chart — m2</text>
  <text x="24" y="52" fill="#666666" font-size="11">Directional ΔT (edge − center) normalized 0–1  ·  Scale max: ±0.76 °C</text>
  <text x="24" y="68" fill="#666666" font-size="10">🔴 Edge hotter than center (+ΔT)  ·  🔵 Edge cooler than center (−ΔT)</text>
  <g transform="translate(0, 30)">
  <circle cx="280" cy="290" r="47.5" fill="none" stroke="#e2e2ec" stroke-width="1" stroke-dasharray="3 3"/>
  <text x="285" y="254.5" fill="#666666" font-size="8">0.25 (±0.19°C)</text>
  <circle cx="280" cy="290" r="95" fill="none" stroke="#e2e2ec" stroke-width="1" stroke-dasharray="3 3"/>
  <text x="285" y="207" fill="#666666" font-size="8">0.50 (±0.38°C)</text>
  <circle cx="280" cy="290" r="142.5" fill="none" stroke="#e2e2ec" stroke-width="1" stroke-dasharray="3 3"/>
  <text x="285" y="159.5" fill="#666666" font-size="8">0.75 (±0.57°C)</text>
  <circle cx="280" cy="290" r="190" fill="none" stroke="#e2e2ec" stroke-width="1" stroke-dasharray="3 3"/>
  <text x="285" y="112" fill="#666666" font-size="8">1.00 (±0.76°C)</text>
  <circle cx="280" cy="290" r="5" fill="#e0e0e0" stroke="#666666" stroke-width="1"/>
  <text x="290" y="293" fill="#666666" font-size="8">center</text>
  <line x1="280" y1="290" x2="280.0" y2="94.0" stroke="#e2e2ec" stroke-width="0.6"/>
  <text x="280.0" y="78.0" fill="#111111" font-size="12" font-weight="bold" text-anchor="middle">N</text>
  <line x1="280" y1="290" x2="418.6" y2="151.4" stroke="#e2e2ec" stroke-width="0.6"/>
  <text x="432.7" y="141.3" fill="#111111" font-size="12" font-weight="bold" text-anchor="middle">NE</text>
  <line x1="280" y1="290" x2="476.0" y2="290.0" stroke="#e2e2ec" stroke-width="0.6"/>
  <text x="496.0" y="294.0" fill="#111111" font-size="12" font-weight="bold" text-anchor="middle">E</text>
  <line x1="280" y1="290" x2="418.6" y2="428.6" stroke="#e2e2ec" stroke-width="0.6"/>
  <text x="432.7" y="446.7" fill="#111111" font-size="12" font-weight="bold" text-anchor="middle">SE</text>
  <line x1="280" y1="290" x2="280.0" y2="486.0" stroke="#e2e2ec" stroke-width="0.6"/>
  <text x="280.0" y="510.0" fill="#111111" font-size="12" font-weight="bold" text-anchor="middle">S</text>
  <line x1="280" y1="290" x2="141.4" y2="428.6" stroke="#e2e2ec" stroke-width="0.6"/>
  <text x="127.3" y="446.7" fill="#111111" font-size="12" font-weight="bold" text-anchor="middle">SW</text>
  <line x1="280" y1="290" x2="84.0" y2="290.0" stroke="#e2e2ec" stroke-width="0.6"/>
  <text x="64.0" y="294.0" fill="#111111" font-size="12" font-weight="bold" text-anchor="middle">W</text>
  <line x1="280" y1="290" x2="141.4" y2="151.4" stroke="#e2e2ec" stroke-width="0.6"/>
  <text x="127.3" y="141.3" fill="#111111" font-size="12" font-weight="bold" text-anchor="middle">NW</text>
  <line x1="280" y1="290" x2="277.0" y2="223.7" stroke="#ff5252" stroke-width="5.714285714285714" stroke-opacity="0.6" stroke-linecap="round"/>
  <circle cx="277.0" cy="223.7" r="3.857142857142857" fill="#00e5ff" stroke="#ff5252" stroke-width="1.5"/>
  <line x1="280" y1="290" x2="339.6" y2="224.8" stroke="#ff5252" stroke-width="5.714285714285714" stroke-opacity="0.6" stroke-linecap="round"/>
  <circle cx="339.6" cy="224.8" r="3.857142857142857" fill="#00e5ff" stroke="#ff5252" stroke-width="1.5"/>
  <line x1="280" y1="290" x2="373.9" y2="285.8" stroke="#ff5252" stroke-width="5.714285714285714" stroke-opacity="0.6" stroke-linecap="round"/>
  <circle cx="373.9" cy="285.8" r="3.857142857142857" fill="#00e5ff" stroke="#ff5252" stroke-width="1.5"/>
  <line x1="280" y1="290" x2="336.1" y2="341.3" stroke="#ff5252" stroke-width="5.714285714285714" stroke-opacity="0.6" stroke-linecap="round"/>
  <circle cx="336.1" cy="341.3" r="3.857142857142857" fill="#00e5ff" stroke="#ff5252" stroke-width="1.5"/>
  <line x1="280" y1="290" x2="280.1" y2="293.0" stroke="#ff5252" stroke-width="5.714285714285714" stroke-opacity="0.6" stroke-linecap="round"/>
  <circle cx="280.1" cy="293.0" r="3.857142857142857" fill="#00e5ff" stroke="#ff5252" stroke-width="1.5"/>
  <line x1="280" y1="290" x2="220.0" y2="355.6" stroke="#448aff" stroke-width="5.714285714285714" stroke-opacity="0.6" stroke-linecap="round"/>
  <circle cx="220.0" cy="355.6" r="3.857142857142857" fill="#00e5ff" stroke="#448aff" stroke-width="1.5"/>
  <line x1="280" y1="290" x2="240.1" y2="291.8" stroke="#448aff" stroke-width="5.714285714285714" stroke-opacity="0.6" stroke-linecap="round"/>
  <circle cx="240.1" cy="291.8" r="3.857142857142857" fill="#00e5ff" stroke="#448aff" stroke-width="1.5"/>
  <line x1="280" y1="290" x2="276.9" y2="287.2" stroke="#448aff" stroke-width="5.714285714285714" stroke-opacity="0.6" stroke-linecap="round"/>
  <circle cx="276.9" cy="287.2" r="3.857142857142857" fill="#00e5ff" stroke="#448aff" stroke-width="1.5"/>
  <line x1="280" y1="290" x2="279.0" y2="256.3" stroke="#448aff" stroke-width="5.714285714285714" stroke-opacity="0.6" stroke-linecap="round"/>
  <circle cx="279.0" cy="256.3" r="3.857142857142857" fill="#3d5afe" stroke="#448aff" stroke-width="1.5"/>
  <line x1="280" y1="290" x2="309.9" y2="258.3" stroke="#ff5252" stroke-width="5.714285714285714" stroke-opacity="0.6" stroke-linecap="round"/>
  <circle cx="309.9" cy="258.3" r="3.857142857142857" fill="#3d5afe" stroke="#ff5252" stroke-width="1.5"/>
  <line x1="280" y1="290" x2="284.5" y2="289.9" stroke="#ff5252" stroke-width="5.714285714285714" stroke-opacity="0.6" stroke-linecap="round"/>
  <circle cx="284.5" cy="289.9" r="3.857142857142857" fill="#3d5afe" stroke="#ff5252" stroke-width="1.5"/>
  <line x1="280" y1="290" x2="294.9" y2="304.0" stroke="#ff5252" stroke-width="5.714285714285714" stroke-opacity="0.6" stroke-linecap="round"/>
  <circle cx="294.9" cy="304.0" r="3.857142857142857" fill="#3d5afe" stroke="#ff5252" stroke-width="1.5"/>
  <line x1="280" y1="290" x2="280.2" y2="295.4" stroke="#ff5252" stroke-width="5.714285714285714" stroke-opacity="0.6" stroke-linecap="round"/>
  <circle cx="280.2" cy="295.4" r="3.857142857142857" fill="#3d5afe" stroke="#ff5252" stroke-width="1.5"/>
  <line x1="280" y1="290" x2="220.9" y2="352.8" stroke="#448aff" stroke-width="5.714285714285714" stroke-opacity="0.6" stroke-linecap="round"/>
  <circle cx="220.9" cy="352.8" r="3.857142857142857" fill="#3d5afe" stroke="#448aff" stroke-width="1.5"/>
  <line x1="280" y1="290" x2="159.0" y2="293.6" stroke="#448aff" stroke-width="5.714285714285714" stroke-opacity="0.6" stroke-linecap="round"/>
  <circle cx="159.0" cy="293.6" r="3.857142857142857" fill="#3d5afe" stroke="#448aff" stroke-width="1.5"/>
  <line x1="280" y1="290" x2="210.4" y2="224.4" stroke="#448aff" stroke-width="5.714285714285714" stroke-opacity="0.6" stroke-linecap="round"/>
  <circle cx="210.4" cy="224.4" r="3.857142857142857" fill="#3d5afe" stroke="#448aff" stroke-width="1.5"/>
  <line x1="280" y1="290" x2="279.9" y2="283.1" stroke="#ff5252" stroke-width="5.714285714285714" stroke-opacity="0.6" stroke-linecap="round"/>
  <circle cx="279.9" cy="283.1" r="3.857142857142857" fill="#7c4dff" stroke="#ff5252" stroke-width="1.5"/>
  <line x1="280" y1="290" x2="340.9" y2="227.2" stroke="#ff5252" stroke-width="5.714285714285714" stroke-opacity="0.6" stroke-linecap="round"/>
  <circle cx="340.9" cy="227.2" r="3.857142857142857" fill="#7c4dff" stroke="#ff5252" stroke-width="1.5"/>
  <line x1="280" y1="290" x2="399.9" y2="288.2" stroke="#ff5252" stroke-width="5.714285714285714" stroke-opacity="0.6" stroke-linecap="round"/>
  <circle cx="399.9" cy="288.2" r="3.857142857142857" fill="#7c4dff" stroke="#ff5252" stroke-width="1.5"/>
  <line x1="280" y1="290" x2="370.0" y2="377.3" stroke="#ff5252" stroke-width="5.714285714285714" stroke-opacity="0.6" stroke-linecap="round"/>
  <circle cx="370.0" cy="377.3" r="3.857142857142857" fill="#7c4dff" stroke="#ff5252" stroke-width="1.5"/>
  <line x1="280" y1="290" x2="280.6" y2="331.3" stroke="#448aff" stroke-width="5.714285714285714" stroke-opacity="0.6" stroke-linecap="round"/>
  <circle cx="280.6" cy="331.3" r="3.857142857142857" fill="#7c4dff" stroke="#448aff" stroke-width="1.5"/>
  <line x1="280" y1="290" x2="261.9" y2="308.6" stroke="#448aff" stroke-width="5.714285714285714" stroke-opacity="0.6" stroke-linecap="round"/>
  <circle cx="261.9" cy="308.6" r="3.857142857142857" fill="#7c4dff" stroke="#448aff" stroke-width="1.5"/>
  <line x1="280" y1="290" x2="267.6" y2="290.2" stroke="#ff5252" stroke-width="5.714285714285714" stroke-opacity="0.6" stroke-linecap="round"/>
  <circle cx="267.6" cy="290.2" r="3.857142857142857" fill="#7c4dff" stroke="#ff5252" stroke-width="1.5"/>
  <line x1="280" y1="290" x2="271.1" y2="281.4" stroke="#448aff" stroke-width="5.714285714285714" stroke-opacity="0.6" stroke-linecap="round"/>
  <circle cx="271.1" cy="281.4" r="3.857142857142857" fill="#7c4dff" stroke="#448aff" stroke-width="1.5"/>
  <line x1="280" y1="290" x2="280.0" y2="180.6" stroke="#ff5252" stroke-width="5.714285714285714" stroke-opacity="0.6" stroke-linecap="round"/>
  <circle cx="280.0" cy="180.6" r="3.857142857142857" fill="#e040fb" stroke="#ff5252" stroke-width="1.5"/>
  <line x1="280" y1="290" x2="352.2" y2="217.8" stroke="#ff5252" stroke-width="5.714285714285714" stroke-opacity="0.6" stroke-linecap="round"/>
  <circle cx="352.2" cy="217.8" r="3.857142857142857" fill="#e040fb" stroke="#ff5252" stroke-width="1.5"/>
  <line x1="280" y1="290" x2="387.9" y2="290.0" stroke="#ff5252" stroke-width="5.714285714285714" stroke-opacity="0.6" stroke-linecap="round"/>
  <circle cx="387.9" cy="290.0" r="3.857142857142857" fill="#e040fb" stroke="#ff5252" stroke-width="1.5"/>
  <line x1="280" y1="290" x2="362.2" y2="372.2" stroke="#ff5252" stroke-width="5.714285714285714" stroke-opacity="0.6" stroke-linecap="round"/>
  <circle cx="362.2" cy="372.2" r="3.857142857142857" fill="#e040fb" stroke="#ff5252" stroke-width="1.5"/>
  <line x1="280" y1="290" x2="280.0" y2="299.6" stroke="#ff5252" stroke-width="5.714285714285714" stroke-opacity="0.6" stroke-linecap="round"/>
  <circle cx="280.0" cy="299.6" r="3.857142857142857" fill="#e040fb" stroke="#ff5252" stroke-width="1.5"/>
  <line x1="280" y1="290" x2="201.2" y2="368.8" stroke="#448aff" stroke-width="5.714285714285714" stroke-opacity="0.6" stroke-linecap="round"/>
  <circle cx="201.2" cy="368.8" r="3.857142857142857" fill="#e040fb" stroke="#448aff" stroke-width="1.5"/>
  <line x1="280" y1="290" x2="152.9" y2="290.0" stroke="#448aff" stroke-width="5.714285714285714" stroke-opacity="0.6" stroke-linecap="round"/>
  <circle cx="152.9" cy="290.0" r="3.857142857142857" fill="#e040fb" stroke="#448aff" stroke-width="1.5"/>
  <line x1="280" y1="290" x2="184.6" y2="194.6" stroke="#448aff" stroke-width="5.714285714285714" stroke-opacity="0.6" stroke-linecap="round"/>
  <circle cx="184.6" cy="194.6" r="3.857142857142857" fill="#e040fb" stroke="#448aff" stroke-width="1.5"/>
  <line x1="280" y1="290" x2="280.6" y2="248.4" stroke="#448aff" stroke-width="5.714285714285714" stroke-opacity="0.6" stroke-linecap="round"/>
  <circle cx="280.6" cy="248.4" r="3.857142857142857" fill="#ff4081" stroke="#448aff" stroke-width="1.5"/>
  <line x1="280" y1="290" x2="392.9" y2="180.4" stroke="#ff5252" stroke-width="5.714285714285714" stroke-opacity="0.6" stroke-linecap="round"/>
  <circle cx="392.9" cy="180.4" r="3.857142857142857" fill="#ff4081" stroke="#ff5252" stroke-width="1.5"/>
  <line x1="280" y1="290" x2="433.6" y2="292.3" stroke="#ff5252" stroke-width="5.714285714285714" stroke-opacity="0.6" stroke-linecap="round"/>
  <circle cx="433.6" cy="292.3" r="3.857142857142857" fill="#ff4081" stroke="#ff5252" stroke-width="1.5"/>
  <line x1="280" y1="290" x2="394.2" y2="407.7" stroke="#ff5252" stroke-width="5.714285714285714" stroke-opacity="0.6" stroke-linecap="round"/>
  <circle cx="394.2" cy="407.7" r="3.857142857142857" fill="#ff4081" stroke="#ff5252" stroke-width="1.5"/>
  <line x1="280" y1="290" x2="279.3" y2="334.0" stroke="#ff5252" stroke-width="5.714285714285714" stroke-opacity="0.6" stroke-linecap="round"/>
  <circle cx="279.3" cy="334.0" r="3.857142857142857" fill="#ff4081" stroke="#ff5252" stroke-width="1.5"/>
  <line x1="280" y1="290" x2="223.1" y2="345.2" stroke="#448aff" stroke-width="5.714285714285714" stroke-opacity="0.6" stroke-linecap="round"/>
  <circle cx="223.1" cy="345.2" r="3.857142857142857" fill="#ff4081" stroke="#448aff" stroke-width="1.5"/>
  <line x1="280" y1="290" x2="199.0" y2="288.8" stroke="#448aff" stroke-width="5.714285714285714" stroke-opacity="0.6" stroke-linecap="round"/>
  <circle cx="199.0" cy="288.8" r="3.857142857142857" fill="#ff4081" stroke="#448aff" stroke-width="1.5"/>
  <line x1="280" y1="290" x2="260.0" y2="269.4" stroke="#448aff" stroke-width="5.714285714285714" stroke-opacity="0.6" stroke-linecap="round"/>
  <circle cx="260.0" cy="269.4" r="3.857142857142857" fill="#ff4081" stroke="#448aff" stroke-width="1.5"/>
  <line x1="280" y1="290" x2="280.9" y2="259.4" stroke="#ff5252" stroke-width="5.714285714285714" stroke-opacity="0.6" stroke-linecap="round"/>
  <circle cx="280.9" cy="259.4" r="3.857142857142857" fill="#ff5252" stroke="#ff5252" stroke-width="1.5"/>
  <line x1="280" y1="290" x2="317.1" y2="255.1" stroke="#ff5252" stroke-width="5.714285714285714" stroke-opacity="0.6" stroke-linecap="round"/>
  <circle cx="317.1" cy="255.1" r="3.857142857142857" fill="#ff5252" stroke="#ff5252" stroke-width="1.5"/>
  <line x1="280" y1="290" x2="304.0" y2="290.7" stroke="#ff5252" stroke-width="5.714285714285714" stroke-opacity="0.6" stroke-linecap="round"/>
  <circle cx="304.0" cy="290.7" r="3.857142857142857" fill="#ff5252" stroke="#ff5252" stroke-width="1.5"/>
  <line x1="280" y1="290" x2="317.2" y2="329.5" stroke="#ff5252" stroke-width="5.714285714285714" stroke-opacity="0.6" stroke-linecap="round"/>
  <circle cx="317.2" cy="329.5" r="3.857142857142857" fill="#ff5252" stroke="#ff5252" stroke-width="1.5"/>
  <line x1="280" y1="290" x2="279.2" y2="318.3" stroke="#448aff" stroke-width="5.714285714285714" stroke-opacity="0.6" stroke-linecap="round"/>
  <circle cx="279.2" cy="318.3" r="3.857142857142857" fill="#ff5252" stroke="#448aff" stroke-width="1.5"/>
  <line x1="280" y1="290" x2="179.9" y2="384.3" stroke="#448aff" stroke-width="5.714285714285714" stroke-opacity="0.6" stroke-linecap="round"/>
  <circle cx="179.9" cy="384.3" r="3.857142857142857" fill="#ff5252" stroke="#448aff" stroke-width="1.5"/>
  <line x1="280" y1="290" x2="118.0" y2="285.2" stroke="#448aff" stroke-width="5.714285714285714" stroke-opacity="0.6" stroke-linecap="round"/>
  <circle cx="118.0" cy="285.2" r="3.857142857142857" fill="#ff5252" stroke="#448aff" stroke-width="1.5"/>
  <line x1="280" y1="290" x2="189.4" y2="193.8" stroke="#448aff" stroke-width="5.714285714285714" stroke-opacity="0.6" stroke-linecap="round"/>
  <circle cx="189.4" cy="193.8" r="3.857142857142857" fill="#ff5252" stroke="#448aff" stroke-width="1.5"/>
  <line x1="280" y1="290" x2="281.8" y2="250.3" stroke="#448aff" stroke-width="5.714285714285714" stroke-opacity="0.6" stroke-linecap="round"/>
  <circle cx="281.8" cy="250.3" r="3.857142857142857" fill="#ff9100" stroke="#448aff" stroke-width="1.5"/>
  <line x1="280" y1="290" x2="372.9" y2="205.1" stroke="#448aff" stroke-width="5.714285714285714" stroke-opacity="0.6" stroke-linecap="round"/>
  <circle cx="372.9" cy="205.1" r="3.857142857142857" fill="#ff9100" stroke="#448aff" stroke-width="1.5"/>
  <line x1="280" y1="290" x2="399.1" y2="295.3" stroke="#448aff" stroke-width="5.714285714285714" stroke-opacity="0.6" stroke-linecap="round"/>
  <circle cx="399.1" cy="295.3" r="3.857142857142857" fill="#ff9100" stroke="#448aff" stroke-width="1.5"/>
  <line x1="280" y1="290" x2="306.4" y2="318.9" stroke="#448aff" stroke-width="5.714285714285714" stroke-opacity="0.6" stroke-linecap="round"/>
  <circle cx="306.4" cy="318.9" r="3.857142857142857" fill="#ff9100" stroke="#448aff" stroke-width="1.5"/>
  <line x1="280" y1="290" x2="274.8" y2="406.5" stroke="#ff5252" stroke-width="5.714285714285714" stroke-opacity="0.6" stroke-linecap="round"/>
  <circle cx="274.8" cy="406.5" r="3.857142857142857" fill="#ff9100" stroke="#ff5252" stroke-width="1.5"/>
  <line x1="280" y1="290" x2="226.2" y2="339.2" stroke="#448aff" stroke-width="5.714285714285714" stroke-opacity="0.6" stroke-linecap="round"/>
  <circle cx="226.2" cy="339.2" r="3.857142857142857" fill="#ff9100" stroke="#448aff" stroke-width="1.5"/>
  <line x1="280" y1="290" x2="90.2" y2="281.5" stroke="#448aff" stroke-width="5.714285714285714" stroke-opacity="0.6" stroke-linecap="round"/>
  <circle cx="90.2" cy="281.5" r="3.857142857142857" fill="#ff9100" stroke="#448aff" stroke-width="1.5"/>
  <line x1="280" y1="290" x2="157.7" y2="156.2" stroke="#448aff" stroke-width="5.714285714285714" stroke-opacity="0.6" stroke-linecap="round"/>
  <circle cx="157.7" cy="156.2" r="3.857142857142857" fill="#ff9100" stroke="#448aff" stroke-width="1.5"/>
  <g transform="translate(500, 40)">
    <rect width="180" height="262" rx="8" fill="#f6f6fa" stroke="#e0e0e0" stroke-width="1"/>
    <text x="14" y="22" fill="#111111" font-size="11" font-weight="bold">Sequence Steps:</text>
    <circle cx="20" cy="42" r="5" fill="#00e5ff"/>
    <text x="36" y="46" fill="#111111" font-size="10" font-weight="600">Step #1 (FLIR0201)</text>
    <circle cx="20" cy="68" r="5" fill="#3d5afe"/>
    <text x="36" y="72" fill="#111111" font-size="10" font-weight="600">Step #2 (FLIR0202)</text>
    <circle cx="20" cy="94" r="5" fill="#7c4dff"/>
    <text x="36" y="98" fill="#111111" font-size="10" font-weight="600">Step #3 (FLIR0203)</text>
    <circle cx="20" cy="120" r="5" fill="#e040fb"/>
    <text x="36" y="124" fill="#111111" font-size="10" font-weight="600">Step #4 (FLIR0204)</text>
    <circle cx="20" cy="146" r="5" fill="#ff4081"/>
    <text x="36" y="150" fill="#111111" font-size="10" font-weight="600">Step #5 (FLIR0205)</text>
    <circle cx="20" cy="172" r="5" fill="#ff5252"/>
    <text x="36" y="176" fill="#111111" font-size="10" font-weight="600">Step #6 (FLIR0206)</text>
    <circle cx="20" cy="198" r="5" fill="#ff9100"/>
    <text x="36" y="202" fill="#111111" font-size="10" font-weight="600">Step #7 (FLIR0207)</text>
    <rect x="10" y="232" width="160" height="1" fill="#e2e2ec"/>
    <line x1="14" y1="246" x2="34" y2="246" stroke="#ff5252" stroke-width="5" stroke-linecap="round"/>
    <text x="40" y="250" fill="#666666" font-size="9">Edge hotter (+ΔT)</text>
    <line x1="14" y1="264" x2="34" y2="264" stroke="#448aff" stroke-width="5" stroke-linecap="round"/>
    <text x="40" y="268" fill="#666666" font-size="9">Edge cooler (−ΔT)</text>
  </g>
</g>
</svg>