<?xml version="1.0" encoding="UTF-8"?>
<svg width="760" height="380" xmlns="http://www.w3.org/2000/svg" style="background:#0b0c10">
  <rect width="100%" height="100%" fill="#0b0c10"/>
  <text x="70" y="24" fill="#f0f4fc" font-size="14" font-weight="bold" font-family="sans-serif">Thermal Range Analytics: t1 (DARK Theme)</text>
  
      <line x1="70" y1="40.0" x2="720" y2="40.0" stroke="#1f2536" stroke-dasharray="3 3"/>
      <text x="60" y="44.0" fill="#8a94b8" font-size="10" text-anchor="end" font-family="sans-serif">38.0°C</text>
    
      <line x1="70" y1="107.5" x2="720" y2="107.5" stroke="#1f2536" stroke-dasharray="3 3"/>
      <text x="60" y="111.5" fill="#8a94b8" font-size="10" text-anchor="end" font-family="sans-serif">36.3°C</text>
    
      <line x1="70" y1="175.0" x2="720" y2="175.0" stroke="#1f2536" stroke-dasharray="3 3"/>
      <text x="60" y="179.0" fill="#8a94b8" font-size="10" text-anchor="end" font-family="sans-serif">34.5°C</text>
    
      <line x1="70" y1="242.5" x2="720" y2="242.5" stroke="#1f2536" stroke-dasharray="3 3"/>
      <text x="60" y="246.5" fill="#8a94b8" font-size="10" text-anchor="end" font-family="sans-serif">32.8°C</text>
    
      <line x1="70" y1="310.0" x2="720" y2="310.0" stroke="#1f2536" stroke-dasharray="3 3"/>
      <text x="60" y="314.0" fill="#8a94b8" font-size="10" text-anchor="end" font-family="sans-serif">31.0°C</text>
    
  
      <g transform="translate(70.0, 330.0)">
        <text fill="#8a94b8" font-size="10" text-anchor="end" transform="rotate(-30)" font-family="sans-serif">S1 (0m) (FLIR0201)</text>
      </g>
    
      <g transform="translate(178.3, 330.0)">
        <text fill="#8a94b8" font-size="10" text-anchor="end" transform="rotate(-30)" font-family="sans-serif">S2 (2m) (FLIR0202)</text>
      </g>
    
      <g transform="translate(286.7, 330.0)">
        <text fill="#8a94b8" font-size="10" text-anchor="end" transform="rotate(-30)" font-family="sans-serif">S3 (4m) (FLIR0203)</text>
      </g>
    
      <g transform="translate(395.0, 330.0)">
        <text fill="#8a94b8" font-size="10" text-anchor="end" transform="rotate(-30)" font-family="sans-serif">S4 (6m) (FLIR0204)</text>
      </g>
    
      <g transform="translate(503.3, 330.0)">
        <text fill="#8a94b8" font-size="10" text-anchor="end" transform="rotate(-30)" font-family="sans-serif">S5 (8m) (FLIR0205)</text>
      </g>
    
      <g transform="translate(611.7, 330.0)">
        <text fill="#8a94b8" font-size="10" text-anchor="end" transform="rotate(-30)" font-family="sans-serif">S6 (10m) (FLIR0206)</text>
      </g>
    
      <g transform="translate(720.0, 330.0)">
        <text fill="#8a94b8" font-size="10" text-anchor="end" transform="rotate(-30)" font-family="sans-serif">S7 (12m) (FLIR0207)</text>
      </g>
    
  <polygon points="70.0,145.0 178.3,160.5 286.7,178.5 395.0,145.5 503.3,103.1 611.7,73.1 720.0,81.0 720.0,234.3 611.7,129.3 503.3,174.7 395.0,231.3 286.7,256.0 178.3,243.2 70.0,210.3" fill="rgba(255, 100, 80, 0.2)" stroke="rgba(255, 100, 80, 0.45)" stroke-width="1"/>
  <polyline points="70.0,161.2 178.3,203.0 286.7,208.7 395.0,200.5 503.3,138.8 611.7,105.9 720.0,148.3" fill="none" stroke="#ff4444" stroke-width="2.5"/>
  
      <line x1="70.0" y1="210.3" x2="70.0" y2="145.0" stroke="#ff8866" stroke-width="1.5"/>
      <circle cx="70.0" cy="210.3" r="3" fill="#ffaa88"/>
      <circle cx="70.0" cy="145.0" r="3" fill="#ffaa88"/>
      <circle cx="70.0" cy="161.2" r="5" fill="#ff4444" stroke="#0b0c10" stroke-width="1.5"/>
    
      <line x1="178.3" y1="243.2" x2="178.3" y2="160.5" stroke="#ff8866" stroke-width="1.5"/>
      <circle cx="178.3" cy="243.2" r="3" fill="#ffaa88"/>
      <circle cx="178.3" cy="160.5" r="3" fill="#ffaa88"/>
      <circle cx="178.3" cy="203.0" r="5" fill="#ff4444" stroke="#0b0c10" stroke-width="1.5"/>
    
      <line x1="286.7" y1="256.0" x2="286.7" y2="178.5" stroke="#ff8866" stroke-width="1.5"/>
      <circle cx="286.7" cy="256.0" r="3" fill="#ffaa88"/>
      <circle cx="286.7" cy="178.5" r="3" fill="#ffaa88"/>
      <circle cx="286.7" cy="208.7" r="5" fill="#ff4444" stroke="#0b0c10" stroke-width="1.5"/>
    
      <line x1="395.0" y1="231.3" x2="395.0" y2="145.5" stroke="#ff8866" stroke-width="1.5"/>
      <circle cx="395.0" cy="231.3" r="3" fill="#ffaa88"/>
      <circle cx="395.0" cy="145.5" r="3" fill="#ffaa88"/>
      <circle cx="395.0" cy="200.5" r="5" fill="#ff4444" stroke="#0b0c10" stroke-width="1.5"/>
    
      <line x1="503.3" y1="174.7" x2="503.3" y2="103.1" stroke="#ff8866" stroke-width="1.5"/>
      <circle cx="503.3" cy="174.7" r="3" fill="#ffaa88"/>
      <circle cx="503.3" cy="103.1" r="3" fill="#ffaa88"/>
      <circle cx="503.3" cy="138.8" r="5" fill="#ff4444" stroke="#0b0c10" stroke-width="1.5"/>
    
      <line x1="611.7" y1="129.3" x2="611.7" y2="73.1" stroke="#ff8866" stroke-width="1.5"/>
      <circle cx="611.7" cy="129.3" r="3" fill="#ffaa88"/>
      <circle cx="611.7" cy="73.1" r="3" fill="#ffaa88"/>
      <circle cx="611.7" cy="105.9" r="5" fill="#ff4444" stroke="#0b0c10" stroke-width="1.5"/>
    
      <line x1="720.0" y1="234.3" x2="720.0" y2="81.0" stroke="#ff8866" stroke-width="1.5"/>
      <circle cx="720.0" cy="234.3" r="3" fill="#ffaa88"/>
      <circle cx="720.0" cy="81.0" r="3" fill="#ffaa88"/>
      <circle cx="720.0" cy="148.3" r="5" fill="#ff4444" stroke="#0b0c10" stroke-width="1.5"/>
    
</svg>